<svg t="1626927228541" class="icon" viewBox="0 0 1024 1024" version="1.1" xmlns="http://www.w3.org/2000/svg" p-id="1896" width="128" height="128"><path d="M895.146667 189.44H793.6v-19.626667c0-11.093333-9.386667-21.333333-22.186667-21.333333H652.8c-6.826667-25.6-20.48-47.786667-38.4-64.853333C587.946667 58.88 552.106667 42.666667 512 42.666667s-75.946667 15.36-102.4 40.96c-18.773333 17.92-32.426667 40.106667-38.4 64.853333H252.586667c-12.8 0-22.186667 9.386667-22.186667 21.333333v19.626667H128.853333c-20.48 0-36.693333 16.213333-36.693333 34.986667v721.066666c0 19.626667 16.213333 34.986667 36.693333 34.986667h766.293334c20.48 0 36.693333-15.36 36.693333-34.986667V224.426667c0-18.773333-16.213333-34.986667-36.693333-34.986667z m-454.826667-75.946667c17.92-17.92 43.52-28.16 70.826667-28.16 28.16 0 52.906667 10.24 71.68 28.16 10.24 9.386667 18.773333 22.186667 23.893333 34.986667H417.28c5.12-12.8 12.8-24.746667 23.04-34.986667z m-165.546667 77.653334h474.453334v66.56H274.773333v-66.56z m583.68 719.36H166.4V260.266667H230.4v18.773333c0 11.946667 9.386667 21.333333 22.186667 21.333333h518.826666c12.8 0 22.186667-9.386667 22.186667-21.333333v-18.773333h64.853333v650.24z m-563.2-349.866667c-20.48 0-36.693333 15.36-36.693333 35.84 0 19.626667 16.213333 34.986667 36.693333 34.986667s36.693333-15.36 36.693334-34.986667c0.853333-19.626667-16.213333-35.84-36.693334-35.84z m0 149.333333c-20.48 0-36.693333 15.36-36.693333 34.986667s16.213333 34.986667 36.693333 34.986667 36.693333-15.36 36.693334-34.986667c0.853333-19.626667-16.213333-34.986667-36.693334-34.986667z m431.786667-284.16H406.186667c-12.8 0-22.186667 9.386667-22.186667 21.333334s9.386667 21.333333 22.186667 21.333333h320.853333c11.946667 0 22.186667-9.386667 22.186667-21.333333-0.853333-11.093333-10.24-21.333333-22.186667-21.333334z m-431.786667-13.653333c-20.48 0-36.693333 16.213333-36.693333 34.986667 0 19.626667 16.213333 35.84 36.693333 35.84s36.693333-16.213333 36.693334-35.84c0.853333-18.773333-16.213333-34.986667-36.693334-34.986667z m431.786667 311.466667H406.186667c-12.8 0-22.186667 9.386667-22.186667 21.333333s9.386667 21.333333 22.186667 21.333333h320.853333c11.946667 0 22.186667-9.386667 22.186667-21.333333-0.853333-11.093333-10.24-21.333333-22.186667-21.333333z m0-148.48H406.186667c-12.8 0-22.186667 9.386667-22.186667 21.333333 0 11.093333 9.386667 20.48 22.186667 20.48h320.853333c11.946667 0 22.186667-9.386667 22.186667-20.48-0.853333-11.946667-10.24-21.333333-22.186667-21.333333z" p-id="1897"></path></svg>