<svg t="1626927201034" class="icon" viewBox="0 0 1079 1024" version="1.1" xmlns="http://www.w3.org/2000/svg" p-id="1754" width="128" height="128"><path d="M915.601 192.981H432.435c-27.528 0-50.048 22.58-50.048 50.168s22.528 50.176 50.048 50.176h483.166c27.537 0 50.048-22.58 50.048-50.176s-22.52-50.168-50.048-50.168zM276.975 203.99l-42.77-6.22c-3.404-0.717-6.348-2.927-7.56-5.778l-18.927-40.524c-7.244-15.787-28.475-15.787-35.737 0.034l-18.842 40.328c-1.817 3.397-4.557 5.615-7.45 5.914l-42.862 6.23c-16.52 2.747-23.04 23.398-11.256 35.694l30.823 31.104c2.483 2.594 3.66 6.076 3.046 9.242l-7.467 44.092c-2.645 17.237 14.533 30.284 29.099 21.998l38.118-20.65c3.09-1.784 6.23-1.784 9.2-0.068l38.331 20.77c14.473 8.234 31.65-4.813 29.022-21.965l-7.458-44.058c-0.316-3.447 0.793-7.023 3.089-9.42l30.703-30.985c11.836-12.348 5.325-32.99-11.102-35.738zM915.6 469.555H432.435c-27.528 0-50.048 22.58-50.048 50.16 0 27.587 22.528 50.175 50.048 50.175h483.166c27.537 0 50.048-22.58 50.048-50.176 0-27.58-22.52-50.159-50.048-50.159z m-638.626 7.996l-42.77-6.22c-3.404-0.726-6.348-2.936-7.56-5.778l-18.927-40.525c-7.244-15.795-28.475-15.795-35.737 0.034l-18.842 40.329c-1.817 3.396-4.557 5.615-7.45 5.914l-42.862 6.229c-16.52 2.748-23.04 23.398-11.256 35.678l30.823 31.104c2.483 2.585 3.66 6.075 3.046 9.233l-7.467 44.1c-2.645 17.237 14.533 30.285 29.099 21.999l38.118-20.65c3.09-1.784 6.23-1.784 9.2-0.069l38.331 20.77c14.473 8.235 31.65-4.813 29.022-21.965l-7.458-44.066c-0.316-3.439 0.793-7.014 3.089-9.412l30.703-30.976c11.836-12.348 5.325-32.998-11.102-35.73zM915.6 760.149H432.435c-27.528 0-50.048 22.58-50.048 50.168s22.528 50.176 50.048 50.176h483.166c27.537 0 50.048-22.58 50.048-50.176s-22.52-50.168-50.048-50.168z m-638.626 1.954l-42.77-6.22c-3.404-0.717-6.348-2.927-7.56-5.777l-18.927-40.525c-7.244-15.787-28.475-15.787-35.737 0.042l-18.842 40.329c-1.817 3.396-4.557 5.606-7.45 5.905l-42.862 6.23c-16.52 2.756-23.04 23.398-11.256 35.694l30.823 31.104c2.483 2.594 3.66 6.085 3.046 9.242l-7.467 44.092c-2.645 17.237 14.533 30.284 29.099 21.999l38.118-20.643c3.09-1.792 6.23-1.792 9.2-0.076l38.331 20.77c14.473 8.234 31.65-4.813 29.022-21.965l-7.458-44.058c-0.316-3.447 0.793-7.023 3.089-9.42l30.703-30.985c11.836-12.356 5.325-32.998-11.102-35.738z" p-id="1755"></path></svg>