<svg t="1628162061044" class="icon" viewBox="0 0 1194 1024" version="1.1" xmlns="http://www.w3.org/2000/svg" p-id="5669" width="128" height="128"><path d="M475.192889 24.860444l-12.401778-19.911111H336.156444c-24.064 0-43.690667 7.395556-62.577777 21.788445-3.413333 2.616889-6.826667 5.461333-10.410667 8.704l-20.821333 19.342222-200.590223 199.111111c-37.205333 36.977778-47.388444 104.106667-3.072 159.061333l7.395556 7.168 36.067556 27.989334c27.136 21.504 54.272 43.576889 79.587555 65.024l12.174222 10.467555 24.576 21.731556 12.117334 11.036444 8.760889 8.305778v336.554667c0 64.853333 76.003556 115.939556 142.165333 115.939555H830.577778l8.305778-0.227555c64.056889-3.982222 133.802667-53.589333 133.802666-115.712v-335.075556l72.078222-62.065778 100.522667-85.333333 4.721778-4.664889c49.948444-57.628444 45.681778-127.772444-2.161778-175.217778L959.886222 55.523556c-39.708444-39.253333-62.577778-50.232889-101.603555-50.517334h-128.284445l-12.572444 19.057778c-3.413333 5.12-12.515556 15.075556-27.192889 25.6-25.315556 18.090667-56.775111 28.899556-95.402667 28.899556-38.570667 0-69.347556-10.808889-93.866666-28.672a106.723556 106.723556 0 0 1-25.770667-25.031112z m297.699555 65.024h85.105778l6.485334 0.227556c8.817778 0.853333 13.937778 4.380444 30.151111 20.195556l193.706666 189.098666 3.811556 4.152889c11.548444 14.051556 12.174222 30.378667-1.706667 49.208889l-2.901333 3.640889-54.215111 45.966222-87.552 74.922667-57.912889 50.062222v373.873778c0 9.216-32.540444 31.118222-57.287111 31.118222H361.472c-24.746667 0-57.230222-21.902222-57.230222-31.118222v-372.053334l-12.515556-12.458666a988.16 988.16 0 0 0-36.238222-34.247111l-13.937778-12.401778a2901.105778 2901.105778 0 0 0-106.894222-88.576l-32.369778-25.201778 2.446222 3.413333c-14.620444-18.147556-11.719111-37.148444-3.185777-45.624888l199.68-198.087112 13.880889-13.084444 7.224888-6.485333a77.937778 77.937778 0 0 1 2.844445-2.275556l3.015111-2.161778a12.856889 12.856889 0 0 1 7.964444-2.104889l82.545778-0.056888 6.257778 6.542222c7.224889 7.224889 15.928889 14.791111 25.998222 22.186666 38.570667 28.046222 86.641778 44.942222 143.872 44.942223 57.002667 0 105.415111-16.839111 144.611556-44.714667 13.710222-9.784889 24.803556-19.740444 33.507555-28.899556h-0.056889z" fill="#4A4A4A" p-id="5670"></path></svg>