<svg t="1628162413572" class="icon" viewBox="0 0 1024 1024" version="1.1" xmlns="http://www.w3.org/2000/svg" p-id="1118" width="128" height="128"><path d="M730.4 694.4h174.4c6.4 0 13.6-2.4 18.4-7.2 9.6-9.6 9.6-25.6 0-35.2-4.8-4.8-11.2-7.2-18.4-7.2H668c-2.4 0-4 0.8-5.6 0.8-0.8 0-1.6 0-2.4 0.8-0.8 0-1.6 0.8-2.4 1.6-0.8 0.8-1.6 0.8-1.6 0.8-1.6 0.8-2.4 2.4-4 3.2-1.6 0.8-2.4 2.4-3.2 4-0.8 0.8-0.8 1.6-0.8 1.6-0.8 0.8-0.8 1.6-1.6 2.4 0 0.8-0.8 1.6-0.8 2.4-0.8 1.6-0.8 4-1.6 6.4v234.4c0 6.4 2.4 12.8 7.2 17.6 9.6 9.6 25.6 9.6 35.2 0 4.8-4.8 7.2-11.2 7.2-18.4v-171.2l220.8 220.8c9.6 9.6 25.6 9.6 35.2 0 9.6-9.6 9.6-25.6 0-35.2l-219.2-222.4zM644.8 353.6v1.6c0 2.4 0.8 4 0.8 5.6 0 0.8 0 1.6 0.8 2.4 0 0.8 0.8 1.6 1.6 2.4 0.8 0.8 0.8 1.6 0.8 1.6 0.8 1.6 2.4 2.4 3.2 4 1.6 0.8 2.4 2.4 4 3.2 0.8 0.8 1.6 0.8 1.6 0.8 0.8 0.8 1.6 0.8 2.4 1.6 0.8 0 1.6 0 2.4 0.8 1.6 0.8 4 0.8 6.4 1.6h234.4c6.4 0 12.8-2.4 17.6-7.2 9.6-9.6 9.6-25.6 0-35.2-4.8-4.8-11.2-7.2-18.4-7.2H731.2L952 106.4c9.6-9.6 9.6-25.6 0-35.2s-25.6-9.6-35.2 0L695.2 292V117.6c0-6.4-2.4-13.6-7.2-18.4-9.6-9.6-25.6-9.6-35.2 0-4.8 4.8-7.2 12-7.2 18.4l-0.8 236c0-0.8 0 0 0 0z m-266.4 316v-1.6c0-2.4-0.8-4-0.8-6.4 0-0.8 0-1.6-0.8-2.4 0-0.8-0.8-1.6-0.8-2.4 0-0.8-0.8-1.6-0.8-1.6-0.8-1.6-2.4-2.4-3.2-4-0.8-0.8-2.4-2.4-4-3.2-0.8-0.8-1.6-0.8-1.6-0.8-0.8-0.8-1.6-0.8-2.4-1.6-0.8 0-1.6-0.8-2.4-0.8-1.6-0.8-4-0.8-5.6-0.8h-237.6c-6.4 0-12.8 2.4-18.4 7.2-9.6 9.6-9.6 25.6 0 35.2 4.8 4.8 12 7.2 18.4 7.2h174.4L72 916c-9.6 9.6-9.6 25.6 0 35.2 9.6 9.6 25.6 9.6 35.2 0l220.8-220.8v171.2c0 6.4 2.4 12.8 7.2 18.4 9.6 9.6 25.6 9.6 35.2 0 4.8-4.8 7.2-11.2 7.2-17.6l0.8-232.8z m-85.6-341.6h-171.2c-6.4 0-12.8 2.4-18.4 7.2-9.6 9.6-9.6 25.6 0 35.2 4.8 4.8 11.2 7.2 17.6 7.2h234.4c2.4 0 4-0.8 6.4-1.6 0.8 0 1.6 0 2.4-0.8 0.8 0 1.6-0.8 2.4-1.6 0.8-0.8 1.6-0.8 1.6-0.8 1.6-0.8 2.4-2.4 4-3.2 0.8-1.6 2.4-2.4 3.2-4 0-0.8 0.8-1.6 0.8-1.6 0-0.8 0.8-1.6 1.6-2.4 0-0.8 0-1.6 0.8-2.4 0.8-1.6 0.8-4 0.8-5.6V117.6c0-6.4-2.4-12.8-7.2-18.4-9.6-9.6-25.6-9.6-35.2 0-4.8 4.8-7.2 12-7.2 18.4V292l-221.6-220.8c-9.6-9.6-25.6-9.6-35.2 0s-9.6 25.6 0 35.2l220 221.6z" fill="" p-id="1119"></path></svg>