<svg t="1628162431490" class="icon" viewBox="0 0 1024 1024" version="1.1" xmlns="http://www.w3.org/2000/svg" p-id="1260" width="128" height="128"><path d="M67.44746667 108.40746667V375.46666667c0 18.56853333 15.29173333 34.4064 34.4064 34.4064s34.4064-15.29173333 34.4064-34.4064V182.6816L353.0752 400.04266667c12.56106667 12.56106667 33.31413333 12.56106667 46.42133333 0 12.56106667-12.56106667 12.56106667-33.31413333 0-46.42133334L181.58933333 136.8064h192.78506667c18.56853333 0 34.4064-15.29173333 34.4064-34.4064s-15.29173333-34.4064-34.4064-34.4064H107.3152c-25.12213333 0.54613333-39.86773333 13.1072-39.86773333 40.41386667z m849.23733333-39.86773334H649.6256c-18.56853333 0-34.4064 15.29173333-34.4064 34.4064s15.29173333 34.4064 34.4064 34.4064H842.41066667L625.0496 353.62133333c-12.56106667 12.56106667-12.56106667 33.31413333 0 46.42133334 12.56106667 12.56106667 33.31413333 12.56106667 46.42133333 0l216.81493334-217.36106667V375.46666667c0 18.56853333 15.29173333 34.4064 34.4064 34.4064 18.56853333 0 34.4064-15.29173333 34.4064-34.4064V108.40746667c-0.54613333-27.30666667-15.29173333-39.86773333-40.41386667-39.86773334z m-809.3696 887.46666667h267.0592c18.56853333 0 34.4064-15.29173333 34.4064-34.4064s-15.29173333-34.4064-34.4064-34.4064H181.58933333L398.9504 670.37866667c12.56106667-12.56106667 12.56106667-33.31413333 0-46.42133334-12.56106667-12.56106667-33.31413333-12.56106667-46.42133333 0L135.71413333 841.3184V648.53333333c0-18.56853333-15.29173333-34.4064-34.4064-34.4064S66.90133333 629.41866667 66.90133333 648.53333333v267.0592c0.54613333 27.30666667 15.29173333 40.41386667 40.41386667 40.41386667z m849.23733333-40.41386667V648.53333333c0-18.56853333-15.29173333-34.4064-34.4064-34.4064S887.73973333 629.41866667 887.73973333 648.53333333v192.78506667L670.9248 623.95733333c-12.56106667-12.56106667-33.31413333-12.56106667-46.42133333 0-12.56106667 12.56106667-12.56106667 33.31413333 0 46.42133334l217.36106666 216.81493333H649.07946667c-18.56853333 0-34.4064 15.29173333-34.4064 34.4064s15.29173333 34.4064 34.4064 34.4064H916.13866667c25.66826667 0 40.41386667-13.1072 40.41386666-40.41386667z" p-id="1261"></path></svg>