<svg t="1631523178203" class="icon" viewBox="0 0 1024 1024" version="1.1" xmlns="http://www.w3.org/2000/svg" p-id="1362" width="128" height="128"><path d="M630.32888889 591.64444445l-546.13333334 0a9.10222222 9.10222222 0 0 0-9.10222222 9.10222222l0 63.71555555a9.10222222 9.10222222 0 0 0 9.10222222 9.10222223L630.32888889 673.56444444a9.10222222 9.10222222 0 0 0 9.10222222-9.10222222l0-63.71555555a9.10222222 9.10222222 0 0 0-9.10222222-9.10222222z m9.10222222-232.10666667a9.10222222 9.10222222 0 0 0-9.10222222-9.10222222l-546.13333334-1e-8a9.10222222 9.10222222 0 0 0-9.10222222 9.10222223l0 63.71555555a9.10222222 9.10222222 0 0 0 9.10222222 9.10222222L630.32888889 432.35555555a9.10222222 9.10222222 0 0 0 9.10222222-9.10222222l0-63.71555555z m-573.44 552.96L958.00888889 912.49777778a9.10222222 9.10222222 0 0 0 9.10222221-9.10222223l1e-8-63.71555555a9.10222222 9.10222222 0 0 0-9.10222222-9.10222222l-892.01777778 0a9.10222222 9.10222222 0 0 0-9.10222222 9.10222222l1e-8 63.71555555a9.10222222 9.10222222 0 0 0 9.10222221 9.10222223z m0-719.07555556L958.00888889 193.42222222a9.10222222 9.10222222 0 0 0 9.10222222-9.10222222l-1e-8-63.71555555a9.10222222 9.10222222 0 0 0-9.10222221-9.10222223l-892.01777778 0a9.10222222 9.10222222 0 0 0-9.10222221 9.10222223l-1e-8 63.71555555a9.10222222 9.10222222 0 0 0 9.10222222 9.10222222zM932.52266667 363.97511111L754.688 504.03555555a10.01244445 10.01244445 0 0 0 0 15.81511112L932.52266667 660.02488889a10.12622222 10.12622222 0 0 0 16.384-7.85066667l0-280.23466667a10.12622222 10.12622222 0 0 0-16.384-7.96444444z" p-id="1363"></path></svg>