<svg t="1631523205707" class="icon" viewBox="0 0 1024 1024" version="1.1" xmlns="http://www.w3.org/2000/svg" p-id="1504" width="128" height="128"><path d="M393.67111111 432.35555555h546.13333334a9.10222222 9.10222222 0 0 0 9.10222222-9.10222222v-63.71555555a9.10222222 9.10222222 0 0 0-9.10222222-9.10222223H393.67111111a9.10222222 9.10222222 0 0 0-9.10222222 9.10222223v63.71555555a9.10222222 9.10222222 0 0 0 9.10222222 9.10222222z m-9.10222222 232.10666667a9.10222222 9.10222222 0 0 0 9.10222222 9.10222223h546.13333334a9.10222222 9.10222222 0 0 0 9.10222222-9.10222223v-63.71555555a9.10222222 9.10222222 0 0 0-9.10222222-9.10222222H393.67111111a9.10222222 9.10222222 0 0 0-9.10222222 9.10222222v63.71555555z m573.44-552.96H65.99111111a9.10222222 9.10222222 0 0 0-9.10222222 9.10222223v63.71555555a9.10222222 9.10222222 0 0 0 9.10222222 9.10222222h892.01777778a9.10222222 9.10222222 0 0 0 9.10222222-9.10222222v-63.71555555a9.10222222 9.10222222 0 0 0-9.10222222-9.10222223z m0 719.07555556H65.99111111a9.10222222 9.10222222 0 0 0-9.10222222 9.10222222v63.71555555a9.10222222 9.10222222 0 0 0 9.10222222 9.10222223h892.01777778a9.10222222 9.10222222 0 0 0 9.10222222-9.10222223v-63.71555555a9.10222222 9.10222222 0 0 0-9.10222222-9.10222222zM91.47733333 660.02488889L269.312 519.96444445a10.01244445 10.01244445 0 0 0 0-15.81511112L91.47733333 363.97511111a10.12622222 10.12622222 0 0 0-16.384 7.85066667v280.23466667a10.12622222 10.12622222 0 0 0 16.384 7.96444444z" p-id="1505"></path></svg>