<svg t="1686213572489" class="icon" viewBox="0 0 1024 1024" version="1.1" xmlns="http://www.w3.org/2000/svg" p-id="2682" width="200" height="200"><path d="M986.17728 422.4L563.77728 89.6c-38.4-25.6-96-25.6-128 0L13.37728 422.4c-12.8 12.8-19.2 32-6.4 44.8 12.8 12.8 32 19.2 44.8 6.4l12.8-12.8v396.8c0 57.6 57.6 96 115.2 96h665.6c51.2 0 89.6-38.4 89.6-96V467.2l12.8 6.4c6.4 6.4 12.8 6.4 19.2 6.4 12.8 0 19.2-6.4 25.6-12.8 12.8-12.8 12.8-32-6.4-44.8zM467.77728 896v-185.6c0-6.4 19.2-12.8 32-12.8 19.2 0 32 6.4 32 12.8V896h-64z m403.2-32c0 19.2-6.4 32-19.2 32H602.17728v-179.2c0-38.4-32-76.8-102.4-76.8s-102.4 38.4-102.4 76.8V896H179.77728c-19.2 0-44.8-19.2-44.8-32V409.6l345.6-268.8c12.8-12.8 32-12.8 44.8 0l345.6 268.8v454.4z" fill="#FFFFFF" p-id="2683"></path></svg>