<svg t="1628507890221" class="icon" viewBox="0 0 1024 1024" version="1.1" xmlns="http://www.w3.org/2000/svg" p-id="1123" width="128" height="128"><path d="M768.00000031 292.80000031H235.20000031c-9.6 0-16.00000031-6.40000031-16.00000031-16.00000031s6.40000031-16.00000031 16.00000031-16.00000031H768.00000031c9.6 0 16.00000031 6.40000031 15.99999938 16.00000031s-6.40000031 16.00000031-15.99999938 16.00000031zM768.00000031 484.80000031H235.20000031c-9.6 0-16.00000031-6.40000031-16.00000031-16.00000031s6.40000031-16.00000031 16.00000031-16.00000031H768.00000031c9.6 0 16.00000031 6.40000031 15.99999938 16.00000031s-6.40000031 16.00000031-15.99999938 16.00000031zM447.99999969 676.80000031H235.20000031c-9.6 0-16.00000031-6.40000031-16.00000031-16.00000031s6.40000031-16.00000031 16.00000031-16.00000031H447.99999969c9.6 0 16.00000031 6.40000031 16.00000031 16.00000031s-6.40000031 16.00000031-16.00000031 16.00000031z" p-id="1124"></path><path d="M875.19999969 975.99999969H148.80000031C92.79999969 975.99999969 48.00000031 931.20000031 48.00000031 875.19999969V148.80000031C48.00000031 92.79999969 92.79999969 48.00000031 148.80000031 48.00000031h724.8C931.20000031 48.00000031 975.99999969 92.79999969 975.99999969 148.80000031v724.8c0 57.6-44.80000031 102.40000031-100.8 102.39999938zM148.80000031 80C110.40000031 80 80 110.40000031 80 148.80000031v724.8C80 913.59999969 110.40000031 944 148.80000031 944h724.8c38.4 0 68.80000031-30.40000031 68.79999938-68.80000031V148.80000031C944 110.40000031 913.59999969 80 875.19999969 80H148.80000031z" fill="#333333" p-id="1125"></path></svg>