<svg t="1628162510870" class="icon" viewBox="0 0 1030 1024" version="1.1" xmlns="http://www.w3.org/2000/svg" p-id="4496" width="128" height="128"><path d="M642.129 393.644h297.404c11.545 0.229 22.632 5.143 30.632 13.487 8.001 8.344 12.345 19.66 12.002 31.204V928.56c0.228 11.544-4 22.745-12.002 31.203-8 8.344-18.973 13.259-30.632 13.487H429.991c-11.544-0.228-22.631-5.143-30.632-13.487-8.001-8.344-12.344-19.66-12.001-31.203V616.755H89.496c-11.544-0.229-22.631-5.144-30.632-13.488-8.001-8.343-12.345-19.659-12.002-31.203V81.724c-0.228-11.545 4-22.746 12.002-31.204 8-8.344 18.973-13.259 30.632-13.487h510c11.544 0.228 22.63 5.143 30.631 13.487 8.001 8.344 12.345 19.66 12.002 31.203v311.92zM89.496 572.064h510V81.724h-510v490.34z m581.207-15.088l-93.496 254.657h41.605l22.86-65.493h104.011l22.86 65.493h40.004l-94.067-254.77h-43.777z m-20.23 155.904l40.576-115.442 43.204 115.442h-83.78zM326.55 141.044h32.232v65.036h123.785v172.134h-32.232v-20.231h-91.553v119.556H328.15v-119.67h-88.924v20.23h-32.232V205.966H328.15l-1.6-64.922z m-87.324 183.45h88.352v-85.267h-88.352v85.266z m119.556 0h91.553v-85.267h-91.553v85.266z m0 0" fill="#666666" p-id="4497"></path></svg>