<svg t="1628481543685" class="icon" viewBox="0 0 1024 1024" version="1.1" xmlns="http://www.w3.org/2000/svg" p-id="1235" width="128" height="128"><path d="M512.1024 2.4576L116.33777778 128.15928889c-14.81386667 4.69902222-24.87182222 18.44337778-24.89457778 33.97404444l2.048 494.34168889 0.46648889 5.64337778a345.75928889 345.75928889 0 0 0 97.8944 165.62631111c62.21368889 61.37173333 214.89208889 141.59644445 280.04124444 175.8208 10.24 5.39306667 17.88586667 9.38666667 22.25493334 11.79875556l7.42968888 4.03911111c5.05173333 2.75342222 11.13884445 2.83306667 16.27022223 0.2048l10.82026667-5.51822223c38.22933333-18.68231111 231.71982222-115.39342222 303.6615111-186.3111111a344.56120889 344.56120889 0 0 0 97.92853334-165.62631112l2.28693333-499.82577778c0.07964445-15.62168889-10.01244445-29.46844445-24.89457777-34.19022222L512.1024 2.4576z m13.26648889 229.08017778c40.33422222 0 76.85688889 16.34986667 103.29884444 42.79182222 26.44195555 26.44195555 42.79182222 62.96462222 42.79182222 103.29884445s-16.34986667 76.85688889-42.79182222 103.29884444c-19.09191111 19.10328889-43.46311111 32.92728889-70.71288888 39.13955556V593.92h76.27662222c17.99964445 0 32.58595555 14.58631111 32.58595555 32.58595555 0 17.98826667-14.58631111 32.58595555-32.58595555 32.58595556h-76.27662222v81.13493334c0 17.98826667-14.58631111 32.58595555-32.58595556 32.58595555s-32.58595555-14.58631111-32.58595556-32.58595555V520.07822222c-27.26115555-6.21226667-51.62097778-20.04764445-70.72426666-39.13955555-26.44195555-26.44195555-42.79182222-62.96462222-42.79182222-103.29884445s16.34986667-76.85688889 42.79182222-103.29884444c26.44195555-26.44195555 62.96462222-42.8032 103.31022222-42.8032z m58.29973333 87.79093333c-14.91626667-14.91626667-35.5328-24.14364445-58.29973333-24.14364444s-43.38346667 9.22737778-58.29973334 24.14364444-24.14364445 35.5328-24.14364444 58.29973334 9.22737778 43.38346667 24.14364444 58.29973333 35.5328 24.14364445 58.29973334 24.14364444 43.38346667-9.22737778 58.29973333-24.14364444 24.14364445-35.5328 24.14364445-58.29973333-9.22737778-43.37208889-24.14364445-58.29973334z m282.33955556 333.6192a294.57976889 294.57976889 0 0 1-79.50791111 130.17315556c-57.0368 56.26311111-211.62666667 136.61297778-267.81013334 164.94364444a17.37045333 17.37045333 0 0 1-16.00853333 0c-57.29848889-30.06008889-209.32835555-109.94346667-264.79502222-164.69333333a293.43516445 293.43516445 0 0 1-79.55342223-130.16177778l-2.00248888-459.30951111a15.85265778 15.85265778 0 0 1 10.99093333-15.12106667l334.01742222-106.17742222a35.24608 35.24608 0 0 1 21.24231111 0l334.01742222 106.17742222c6.59911111 2.08213333 11.09333333 8.20337778 11.08195556 15.12106667l-1.91146666 459.0592 0.23893333-0.01137778z" p-id="1236"></path></svg>