<svg t="1626927190002" class="icon" viewBox="0 0 1024 1024" version="1.1" xmlns="http://www.w3.org/2000/svg" p-id="1610" width="128" height="128"><path d="M611.626667 959.530667a36.352 36.352 0 0 1-6.741334-0.64 35.968 35.968 0 0 1-28.672-42.069334 193.749333 193.749333 0 0 1 118.4-144.128 132.010667 132.010667 0 1 1 145.792 0 193.706667 193.706667 0 0 1 118.4 144.128 36.181333 36.181333 0 0 1-28.586666 42.069334 39.381333 39.381333 0 0 1-6.698667 0.597333 36.010667 36.010667 0 0 1-35.285333-29.312 122.794667 122.794667 0 0 0-241.237334 0 36.010667 36.010667 0 0 1-35.370666 29.354667z m155.946666-356.821334a59.989333 59.989333 0 1 0 59.733334 59.946667 60.032 60.032 0 0 0-59.733334-59.946667z" p-id="1611"></path><path d="M888.533333 64H135.552a72.064 72.064 0 0 0-72.021333 72.021333v752A72.064 72.064 0 0 0 135.552 960h276.992a36.010667 36.010667 0 0 0 0-71.978667H135.552V136.021333h752.981333v339.968a36.010667 36.010667 0 0 0 72.021334 0V136.021333A72.064 72.064 0 0 0 888.533333 64z" p-id="1612"></path><path d="M412.501333 712.021333H228.48a36.010667 36.010667 0 0 1 0-72.021333h184.021333a36.010667 36.010667 0 1 1 0 72.021333z m0-192H228.48a36.010667 36.010667 0 0 1 0-71.978666h184.021333a36.010667 36.010667 0 1 1 0 72.021333z m128-192H228.48a36.010667 36.010667 0 0 1 0-72.021333h312.021333a36.010667 36.010667 0 1 1 0 72.021333z" p-id="1613"></path></svg>