<svg t="1626927178609" class="icon" viewBox="0 0 1030 1024" version="1.1" xmlns="http://www.w3.org/2000/svg" p-id="1316" width="128" height="128"><path d="M320.326217 674.084571l-36.571428 36.571429c-29.257143 36.571429-43.885714 87.771429-36.571429 138.971429 7.314286 65.828571 168.228571 87.771429 394.971429 87.771428 226.742857 0 387.657143-21.942857 387.657142-87.771428 7.314286-65.828571-21.942857-138.971429-80.457142-175.542858-29.257143-21.942857-58.514286-43.885714-95.085715-58.514285 7.314286 7.314286-36.571429-14.628571-43.885714-21.942857-14.628571-7.314286-21.942857-14.628571-36.571429-14.628572 0 0-7.314286 0-7.314285-7.314286v-7.314285c0-14.628571 7.314286-29.257143 14.628571-36.571429 65.828571-51.2 95.085714-138.971429 87.771429-226.742857-7.314286-124.342857-109.714286-219.428571-234.057143-212.114286-102.4-7.314286-190.171429 51.2-226.742857 146.285715-29.257143 73.142857-21.942857 153.6 14.628571 226.742857 14.628571 21.942857 36.571429 43.885714 58.514286 58.514285 7.314286 7.314286 14.628571 14.628571 14.628571 36.571429 0 7.314286-7.314286 21.942857-14.628571 21.942857-65.828571 21.942857-117.028571 51.2-160.914286 95.085714z m387.657143-95.085714c0 7.314286 7.314286 14.628571 14.628571 21.942857l21.942858 21.942857c7.314286 7.314286 21.942857 14.628571 36.571428 21.942858 7.314286 7.314286 51.2 21.942857 43.885714 21.942857 29.257143 14.628571 58.514286 29.257143 80.457143 51.2 43.885714 29.257143 65.828571 80.457143 58.514286 131.657143 0-7.314286 0-7.314286-14.628571 0-21.942857 7.314286-51.2 14.628571-73.142858 14.628571-73.142857 14.628571-153.6 14.628571-234.057142 14.628571-175.542857 0-336.457143-21.942857-336.457143-36.571428-7.314286-36.571429 0-65.828571 21.942857-95.085714 7.314286-7.314286 29.257143-36.571429 36.571428-36.571429 36.571429-36.571429 87.771429-65.828571 138.971429-87.771429l7.314286-7.314285c21.942857-14.628571 36.571429-43.885714 36.571428-73.142857s-7.314286-58.514286-29.257143-80.457143l-43.885714-43.885715c-29.257143-58.514286-29.257143-117.028571-14.628571-175.542857 29.257143-73.142857 95.085714-117.028571 175.542857-109.714285 95.085714 0 175.542857 73.142857 175.542857 160.914285 7.314286 65.828571-14.628571 131.657143-73.142857 175.542857-21.942857 21.942857-29.257143 51.2-29.257143 87.771429v21.942857z" p-id="1317"></path><path d="M71.640503 593.627429l-36.571429 36.571428c-29.257143 29.257143-43.885714 73.142857-29.257143 117.028572 7.314286 36.571429 58.514286 58.514286 160.914286 65.828571 7.314286 0 21.942857 0 29.257143-7.314286 7.314286-7.314286 7.314286-21.942857 7.314286-29.257143-7.314286-7.314286-14.628571-14.628571-21.942857-14.628571-29.257143 0-58.514286-7.314286-87.771429-14.628571-7.314286 0-14.628571-7.314286-21.942857-7.314286-7.314286-29.257143 0-51.2 21.942857-73.142857 7.314286-7.314286 29.257143-29.257143 36.571429-29.257143 43.885714-36.571429 87.771429-58.514286 138.971428-73.142857l7.314286-7.314286c36.571429-29.257143 51.2-80.457143 21.942857-117.028571l-21.942857-21.942858c-14.628571-7.314286-29.257143-21.942857-36.571429-36.571428-29.257143-43.885714-29.257143-102.4-14.628571-146.285714 29.257143-65.828571 95.085714-102.4 168.228571-95.085715 21.942857 0 43.885714 0 65.828572 7.314286 14.628571 7.314286 29.257143 0 36.571428-14.628571 7.314286-14.628571 0-29.257143-14.628571-36.571429-29.257143-7.314286-58.514286-14.628571-80.457143-14.628571-117.028571-14.628571-226.742857 65.828571-241.371429 182.857142-7.314286 51.2 7.314286 95.085714 29.257143 138.971429 14.628571 21.942857 36.571429 36.571429 58.514286 51.2 7.314286 7.314286 7.314286 14.628571 7.314286 29.257143 0 7.314286-7.314286 14.628571-7.314286 14.628571-73.142857 29.257143-131.657143 58.514286-175.542857 95.085715z" p-id="1318"></path></svg>