<svg t="1626927612287" class="icon" viewBox="0 0 1024 1024" version="1.1" xmlns="http://www.w3.org/2000/svg" p-id="1028" width="128" height="128"><path d="M279.552 290.56c0-92.608 76.48-169.28 168.896-169.28 92.352 0 168.832 76.672 168.832 169.344 0 92.608-76.48 169.344-168.832 169.344-92.416 0-168.896-76.736-168.896-169.344z m-107.776 602.688a49.984 49.984 0 0 1-50.688-50.816c0-169.28 130.624-309.248 296.064-325.184h34.752c38.272-3.008 92.352-12.992 120.704-38.4l12.928-9.408c54.08-44.8 85.888-108.608 85.888-178.816C671.424 166.08 569.664 64 442.496 64c-117.76 0-219.52 102.08-219.52 226.56 0 70.272 31.744 134.016 85.888 178.88l15.872 9.408-15.872 6.528A383.424 383.424 0 0 0 64 842.496c0 60.736 47.68 108.544 108.288 108.544h289.536c9.472 0 25.344-9.472 25.344-28.864 0-22.4-15.872-28.928-25.344-28.928H171.776z m734.592-127.488c-47.68 6.464-82.944 44.8-82.944 95.616 0 9.472 2.944 22.4 6.4 28.928l-41.152 22.4-15.936-16c-18.88-12.928-34.752-18.88-54.144-18.88-15.872 0-34.752 6.464-54.144 18.944-6.4 6.4-12.864 9.472-15.872 15.936l-38.208-22.4c2.944-6.528 6.4-18.944 6.4-28.928a96 96 0 0 0-82.944-95.616c0-6.464-2.944-18.944-2.944-31.872 0-9.472 2.944-22.4 2.944-31.872a94.272 94.272 0 0 0 82.944-95.616c0-9.472-2.944-22.4-6.4-28.928l41.216-22.4c2.944 3.008 9.408 9.472 15.872 12.928 18.88 12.992 34.752 18.944 50.688 18.944 15.872 0 31.744-6.464 50.624-18.944 6.464-6.4 12.928-9.408 15.936-12.928l41.216 22.4c-3.008 6.528-6.464 18.944-6.464 28.928a96 96 0 0 0 82.944 95.616c0 6.464 2.944 18.944 2.944 31.872 4.48 9.472 1.024 22.4 1.024 31.872z m44.672-79.68c-2.944-16-15.872-28.928-28.8-28.928h-2.944a49.984 49.984 0 0 1-50.688-50.752c0-6.464 3.008-16 3.008-18.944 6.4-15.936 0-34.88-12.928-44.8l-57.152-31.872h-15.872c-9.408 0-22.4 2.944-28.8 12.928-6.4 6.464-25.344 22.4-38.272 22.4-12.864 0-31.744-15.936-41.216-22.4a40.32 40.32 0 0 0-28.8-12.928c-6.4 0-9.408 0-12.928 2.944l-60.544 31.872a40.128 40.128 0 0 0-12.928 44.8s2.944 9.536 2.944 18.944c0 28.928-22.336 50.816-50.624 50.816h-3.008c-12.928 0-25.344 12.992-28.8 28.928 0 2.944-6.4 25.344-6.4 47.808 0 18.88 2.944 44.8 6.4 47.808 3.008 15.936 15.872 28.864 28.8 28.864h3.008c28.8 0 50.624 22.4 50.624 50.816 0 6.464-2.944 15.936-2.944 18.944-6.464 15.936 0 34.816 12.928 44.8l57.088 31.872c6.4-3.008 9.408-3.008 15.872-3.008 9.472 0 22.4-2.944 28.8-12.928 6.464-6.464 25.344-25.408 41.28-25.408 12.864 0 34.752 16 41.216 25.408a40.32 40.32 0 0 0 28.8 12.928c6.4 0 9.408 0 15.872-2.944l57.152-31.872c12.864-9.472 18.88-28.928 12.864-44.8 0 0-2.944-9.536-2.944-19.008 0-28.8 22.4-50.752 50.624-50.752h3.008c12.928 0 25.344-12.992 28.8-28.928 0 0 6.464-25.408 6.464-47.808a195.136 195.136 0 0 1-8.96-44.8z m-232.448 89.152a41.856 41.856 0 0 1-41.216-41.344c0-22.4 18.88-41.344 41.216-41.344 22.4 0 41.28 18.944 41.28 41.344a41.472 41.472 0 0 1-41.28 41.344z m15.936-127.488c-60.608-12.992-114.752 41.344-101.824 105.088 6.4 34.816 34.752 63.744 70.016 70.208a86.08 86.08 0 0 0 101.824-102.08 87.808 87.808 0 0 0-70.016-73.216z" p-id="1029"></path></svg>