<svg t="1628481532680" class="icon" viewBox="0 0 1024 1024" version="1.1" xmlns="http://www.w3.org/2000/svg" p-id="1092" width="128" height="128"><path d="M890.65244445 40.1408H191.77654045c-32.21458489 0-58.31247645 26.09789155-58.31247645 58.31247645V206.16533333c0 16.07816533 13.04894578 29.12711111 29.12711111 29.12711112s29.12711111-13.04894578 29.12711111-29.12711112V127.58038755c0-16.07816533 13.04894578-29.18536533 29.18536533-29.18536533h640.73819023c16.07816533 0 29.18536533 13.04894578 29.18536533 29.18536533V896.47786667c0 16.07816533-13.04894578 29.18536533-29.18536533 29.18536533h-640.79644445c-16.07816533 0-29.18536533-13.04894578-29.18536533-29.18536533v-55.28325689c0-16.07816533-13.04894578-29.12711111-29.12711111-29.12711111s-29.12711111 13.04894578-29.12711111 29.12711111V925.60497778c0 32.21458489 26.09789155 58.31247645 58.31247644 58.31247644H890.65244445c32.21458489 0 58.31247645-26.09789155 58.31247644-58.31247644V98.45327645C949.02317511 66.23869155 922.86702933 40.1408 890.65244445 40.1408z" p-id="1093"></path><path d="M220.72888889 325.58648889H104.22044445c-16.07816533 0-29.12711111-13.04894578-29.12711112-29.12711111s13.04894578-29.12711111 29.12711112-29.12711111h116.50844444c16.07816533 0 29.12711111 13.04894578 29.12711111 29.12711111s-13.04894578 29.12711111-29.12711111 29.12711111zM220.72888889 558.60337778H104.22044445c-16.07816533 0-29.12711111-13.04894578-29.12711112-29.12711111s13.04894578-29.12711111 29.12711112-29.12711112h116.50844444c16.07816533 0 29.12711111 13.04894578 29.12711111 29.12711112s-13.04894578 29.12711111-29.12711111 29.12711111zM220.72888889 791.62026667H104.22044445c-16.07816533 0-29.12711111-13.04894578-29.12711112-29.12711112s13.04894578-29.12711111 29.12711112-29.1271111h116.50844444c16.07816533 0 29.12711111 13.04894578 29.12711111 29.1271111s-13.04894578 29.12711111-29.12711111 29.12711112zM760.27949511 733.36604445c-18.46658845-58.02120533-59.36105245-106.08093867-112.48890311-133.98471112 44.73924267-32.85538133 73.86635378-85.86672355 73.86635378-145.63555555 0-99.73122845-80.85686045-180.58808889-180.58808889-180.58808889s-180.58808889 80.85686045-180.58808889 180.58808889c0 59.768832 29.06885689 112.78017422 73.86635378 145.63555555-53.12785067 27.90377245-94.02231467 75.96350578-112.48890311 133.98471112 0 0-6.87399822 20.62199467 27.02995911 29.1271111 23.30168889 5.82542222 35.24380445-29.12711111 35.24380444-29.1271111 23.88423111-53.59388445 74.448896-92.62421333 134.85852445-100.43027912 7.28177778 0.87381333 14.62180978 1.39810133 22.13660444 1.39810134s14.85482667-0.524288 22.13660444-1.39810134c60.35137422 7.80606578 110.91603911 46.83639467 134.85852445 100.43027912 0 0 12.52465778 34.83602489 41.06922667 29.1271111 29.01060267-5.82542222 21.08802845-29.12711111 21.08802844-29.1271111zM418.676736 453.74577778c0-67.57489778 54.75896889-122.33386667 122.33386667-122.33386667s122.33386667 54.75896889 122.33386666 122.33386667c0 60.35137422-43.80717511 110.39175111-101.30409244 120.41147733-6.93225245-0.64079645-13.92275911-0.99032178-21.02977422-0.99032178s-14.09752178 0.34952533-21.02977422 0.99032178C462.48391111 564.13752889 418.676736 514.097152 418.676736 453.74577778z" p-id="1094"></path></svg>